<svg width="559" height="50" viewBox="0 0 559 50" fill="none" xmlns="http://www.w3.org/2000/svg">
<rect x="0.5" y="0.5" width="160" height="49" rx="4.5" stroke="#E06733"/>
<path d="M46.28 32.26C44.4933 32.26 43.0667 31.6467 42 30.42C40.9333 29.1933 40.4 27.38 40.4 24.98C40.4 22.5667 40.86 20.76 41.78 19.56C42.7133 18.3467 44.16 17.74 46.12 17.74C48.0933 17.74 49.7533 18.2333 51.1 19.22C51.1 19.9 51.0067 20.7067 50.82 21.64C50.5267 21.6933 50.14 21.72 49.66 21.72L49.22 19.66C48.46 19.4067 47.5267 19.28 46.42 19.28C45.6867 19.28 44.68 19.48 43.4 19.88C43.32 20.0267 43.22 20.2333 43.1 20.5C42.98 20.7533 42.82 21.3 42.62 22.14C42.4333 22.9667 42.34 23.8 42.34 24.64C42.34 28.7333 43.6667 30.78 46.32 30.78C47.72 30.78 48.8 30.5267 49.56 30.02C49.6133 28.34 49.6467 27.08 49.66 26.24L47.72 25.76L47.78 25.06H52.38C52.6067 25.4867 52.72 25.8867 52.72 26.26C52.2 26.34 51.64 26.3933 51.04 26.42C51.12 28.66 51.16 30.2067 51.16 31.06C50.8267 31.2867 50.16 31.5467 49.16 31.84C48.1733 32.12 47.2133 32.26 46.28 32.26ZM61.8655 25.46L61.7655 30.62C62.3388 30.66 62.9121 30.7533 63.4855 30.9L63.4455 31.6C63.2321 31.7067 62.8455 31.8267 62.2855 31.96C61.7388 32.08 61.1988 32.14 60.6655 32.14C60.4255 31.66 60.2921 31.2 60.2655 30.76C58.7455 31.76 57.6788 32.26 57.0655 32.26C56.1188 32.26 55.3588 32.0067 54.7855 31.5C54.2121 30.9933 53.9255 30.2867 53.9255 29.38C53.9255 27.2867 55.2055 26.2067 57.7655 26.14C59.2588 26.1 60.0121 26.08 60.0255 26.08L60.0055 25.4C59.9788 24.48 59.8055 23.82 59.4855 23.42C59.1655 23.0067 58.5921 22.8 57.7655 22.8C57.4188 22.8 57.0455 22.88 56.6455 23.04L56.1655 25.04C56.0988 25.0533 55.9855 25.06 55.8255 25.06L55.0055 25C54.7921 24.4267 54.6788 23.6333 54.6655 22.62C54.9188 22.4867 55.4988 22.2867 56.4055 22.02C57.3121 21.74 57.8921 21.6 58.1455 21.6C59.5055 21.6 60.4655 21.9 61.0255 22.5C61.5855 23.1 61.8655 24.0867 61.8655 25.46ZM57.5055 30.9C57.8921 30.9 58.7855 30.4667 60.1855 29.6L60.0855 27.1C59.1788 27.18 58.4188 27.2533 57.8055 27.32C57.1921 27.3867 56.6988 27.5667 56.3255 27.86C55.9521 28.14 55.7655 28.5867 55.7655 29.2C55.7655 30.3333 56.3455 30.9 57.5055 30.9ZM70.7467 23.28C70.6801 23.2133 70.5334 23.18 70.3067 23.18C70.0801 23.18 69.7401 23.26 69.2867 23.42C68.8467 23.58 68.4467 23.7667 68.0867 23.98C68.0067 26.94 67.9534 29.16 67.9267 30.64L69.6067 30.8C69.6067 31.1733 69.4934 31.5733 69.2667 32H64.6667L64.6067 31.3C65.2201 31.0867 65.8201 30.9267 66.4067 30.82C66.3267 27.4333 66.2601 24.9267 66.2067 23.3C65.4734 23.26 64.8867 23.18 64.4467 23.06L64.5267 22.02C65.2334 21.82 66.2801 21.72 67.6667 21.72C67.8801 22.0533 68.0134 22.48 68.0667 23C69.6001 22.0667 70.5134 21.6 70.8067 21.6C71.1001 21.6 71.4401 21.66 71.8267 21.78C72.2134 21.8867 72.5001 22.0067 72.6867 22.14C72.6867 23.4733 72.5601 24.56 72.3067 25.4C72.1201 25.4533 71.9001 25.48 71.6467 25.48C71.4067 25.48 71.2401 25.4733 71.1467 25.46L70.7467 23.28ZM80.4711 22.74L80.4111 18.74C79.6778 18.7 79.0911 18.62 78.6511 18.5L78.7311 17.46C79.4111 17.26 80.3978 17.16 81.6911 17.16C82.1044 17.16 82.3978 17.1733 82.5711 17.2C82.5711 17.44 82.5311 17.76 82.4511 18.16C82.3844 18.5467 82.3378 18.76 82.3111 18.8L82.1311 30.62C82.6778 30.6467 83.2578 30.74 83.8711 30.9L83.8311 31.6C82.9111 32.0267 82.0978 32.24 81.3911 32.24C81.2444 32.24 81.1311 32.2333 81.0511 32.22C80.9444 32.02 80.8111 31.56 80.6511 30.84C79.1178 31.7067 78.0444 32.1733 77.4311 32.24C76.1511 32.24 75.1911 31.7533 74.5511 30.78C73.9111 29.8067 73.5911 28.56 73.5911 27.04C73.5911 25.5067 73.9111 24.22 74.5511 23.18C75.2044 22.1267 76.1644 21.6 77.4311 21.6C78.4178 21.6 79.4311 21.98 80.4711 22.74ZM77.7711 22.96C76.2111 22.96 75.4311 24.24 75.4311 26.8C75.4311 27.8 75.5911 28.6667 75.9111 29.4C76.0711 29.8 76.3044 30.12 76.6111 30.36C76.9311 30.6 77.2978 30.72 77.7111 30.72C78.1244 30.72 78.6044 30.6267 79.1511 30.44C79.7111 30.2533 80.1911 30.04 80.5911 29.8L80.4711 24.1C80.1111 23.7933 79.6711 23.5267 79.1511 23.3C78.6311 23.0733 78.1711 22.96 77.7711 22.96ZM89.9797 30.88C90.5664 30.88 91.4864 30.6 92.7397 30.04C92.993 30.3867 93.1264 30.6933 93.1397 30.96C92.4597 31.36 91.793 31.6733 91.1397 31.9C90.4864 32.1267 90.0197 32.24 89.7397 32.24C88.193 32.24 87.013 31.78 86.1997 30.86C85.3864 29.9267 84.9797 28.6267 84.9797 26.96C84.9797 25.2933 85.373 23.9867 86.1597 23.04C86.9597 22.08 88.153 21.6 89.7397 21.6C90.9664 21.6 91.8997 22.04 92.5397 22.92C93.193 23.8 93.5197 24.98 93.5197 26.46C93.413 26.6467 93.3264 26.7733 93.2597 26.84L86.8197 26.74C86.833 28.0867 87.0664 29.1133 87.5197 29.82C87.9864 30.5267 88.8064 30.88 89.9797 30.88ZM91.6997 25.6C91.6997 24.72 91.5397 24.04 91.2197 23.56C90.8997 23.0667 90.3664 22.82 89.6197 22.82C88.873 22.82 88.2064 22.96 87.6197 23.24C87.2197 24.04 86.9664 24.86 86.8597 25.7C87.913 25.6867 89.5264 25.6533 91.6997 25.6ZM101.374 21.6C102.654 21.6 103.581 21.92 104.154 22.56C104.727 23.1867 105.014 24.1467 105.014 25.44C105.014 25.8133 104.961 27.5467 104.854 30.64L106.534 30.8C106.534 31.1733 106.421 31.5733 106.194 32H101.594L101.534 31.3C102.147 31.0867 102.747 30.9267 103.334 30.82C103.254 27.3267 103.181 25.3867 103.114 25C103.061 24.6 102.967 24.2533 102.834 23.96C102.701 23.6667 102.501 23.46 102.234 23.34C101.967 23.22 101.614 23.16 101.174 23.16C100.294 23.16 99.4407 23.3733 98.6141 23.8C98.5341 26.84 98.4807 29.12 98.4541 30.64L100.134 30.8C100.134 31.1733 100.021 31.5733 99.7941 32H95.1941L95.1341 31.3C95.7474 31.0867 96.3474 30.9267 96.9341 30.82C96.8541 27.4333 96.7874 24.9267 96.7341 23.3C96.0007 23.26 95.4141 23.18 94.9741 23.06L95.0541 22.02C95.7741 21.82 96.8207 21.72 98.1941 21.72C98.3541 21.96 98.4741 22.3067 98.5541 22.76C99.1274 22.4533 99.7007 22.1867 100.274 21.96C100.861 21.72 101.227 21.6 101.374 21.6ZM109.118 30.72C109.585 30.92 110.152 31.02 110.818 31.02C111.498 31.02 112.032 30.8933 112.418 30.64C112.805 30.3867 112.998 30.04 112.998 29.6C112.998 29.16 112.818 28.7933 112.458 28.5C112.098 28.2067 111.658 27.9467 111.138 27.72C110.618 27.4933 110.098 27.2533 109.578 27C109.058 26.7467 108.618 26.4133 108.258 26C107.898 25.5867 107.718 25.1067 107.718 24.56C107.718 23.64 108.025 22.92 108.638 22.4C109.252 21.8667 110.098 21.6 111.178 21.6C112.272 21.6 113.298 21.8467 114.258 22.34C114.272 22.4733 114.278 22.8333 114.278 23.42C114.278 23.9933 114.218 24.4867 114.098 24.9C113.778 25.0067 113.398 25.06 112.958 25.06L112.298 23.02C112.005 22.8733 111.605 22.8 111.098 22.8C110.605 22.8 110.212 22.9333 109.918 23.2C109.625 23.4533 109.478 23.78 109.478 24.18C109.478 24.5667 109.658 24.9067 110.018 25.2C110.392 25.4933 110.838 25.76 111.358 26C111.878 26.2267 112.398 26.4733 112.918 26.74C113.438 26.9933 113.878 27.3333 114.238 27.76C114.612 28.1733 114.798 28.6533 114.798 29.2C114.798 30.16 114.425 30.9133 113.678 31.46C112.945 31.9933 112.038 32.26 110.958 32.26C110.372 32.26 109.745 32.1667 109.078 31.98C108.412 31.78 107.852 31.5267 107.398 31.22C107.398 30.3267 107.478 29.5333 107.638 28.84C107.945 28.7867 108.358 28.76 108.878 28.76L109.118 30.72Z" fill="#E06733"/>
<rect x="199.5" y="0.5" width="160" height="49" rx="4.5" stroke="#E06733"/>
<path d="M263.98 28.86C264.02 28.94 264.073 29.2467 264.14 29.78C264.22 30.3133 264.26 30.7667 264.26 31.14C264.26 31.5 264.24 31.7867 264.2 32H254.7L254.64 31.3C255.267 31.0733 255.833 30.92 256.34 30.84C256.26 25.5867 256.193 21.7133 256.14 19.22C255.793 19.1667 255.207 19.0067 254.38 18.74L254.48 18H259.3C259.527 18.3733 259.64 18.7667 259.64 19.18C258.92 19.2067 258.4 19.2267 258.08 19.24C258.053 21.8 258.027 24.1333 258 26.24C257.987 28.3333 257.973 29.8067 257.96 30.66H262.34L262.82 28.76C263.487 28.76 263.873 28.7933 263.98 28.86ZM273.596 25.46L273.496 30.62C274.069 30.66 274.643 30.7533 275.216 30.9L275.176 31.6C274.963 31.7067 274.576 31.8267 274.016 31.96C273.469 32.08 272.929 32.14 272.396 32.14C272.156 31.66 272.023 31.2 271.996 30.76C270.476 31.76 269.409 32.26 268.796 32.26C267.849 32.26 267.089 32.0067 266.516 31.5C265.943 30.9933 265.656 30.2867 265.656 29.38C265.656 27.2867 266.936 26.2067 269.496 26.14C270.989 26.1 271.743 26.08 271.756 26.08L271.736 25.4C271.709 24.48 271.536 23.82 271.216 23.42C270.896 23.0067 270.323 22.8 269.496 22.8C269.149 22.8 268.776 22.88 268.376 23.04L267.896 25.04C267.829 25.0533 267.716 25.06 267.556 25.06L266.736 25C266.523 24.4267 266.409 23.6333 266.396 22.62C266.649 22.4867 267.229 22.2867 268.136 22.02C269.043 21.74 269.623 21.6 269.876 21.6C271.236 21.6 272.196 21.9 272.756 22.5C273.316 23.1 273.596 24.0867 273.596 25.46ZM269.236 30.9C269.623 30.9 270.516 30.4667 271.916 29.6L271.816 27.1C270.909 27.18 270.149 27.2533 269.536 27.32C268.923 27.3867 268.429 27.5667 268.056 27.86C267.683 28.14 267.496 28.5867 267.496 29.2C267.496 30.3333 268.076 30.9 269.236 30.9ZM284.177 24.14H284.097L281.817 32H279.837L277.097 23.2L275.417 23.04C275.417 22.6667 275.531 22.2667 275.757 21.84H280.357L280.417 22.54C279.991 22.7267 279.517 22.8733 278.997 22.98L280.417 28.44L280.777 30.2H280.977L281.377 28.42L283.397 21.84C283.557 21.8267 283.671 21.82 283.737 21.82L285.117 21.86L287.257 28.44L287.697 30.2H287.877L288.197 28.42L289.877 22.98L288.197 22.54L288.257 21.84H292.757C292.984 22.2667 293.097 22.6667 293.097 23.04C292.551 23.1067 292.004 23.1533 291.457 23.18L288.717 32H286.737L284.177 24.14ZM299.765 21.6C301.045 21.6 301.971 21.92 302.545 22.56C303.118 23.1867 303.405 24.1467 303.405 25.44C303.405 25.8133 303.351 27.5467 303.245 30.64L304.925 30.8C304.925 31.1733 304.811 31.5733 304.585 32H299.985L299.925 31.3C300.538 31.0867 301.138 30.9267 301.725 30.82C301.645 27.3267 301.571 25.3867 301.505 25C301.451 24.6 301.358 24.2533 301.225 23.96C301.091 23.6667 300.891 23.46 300.625 23.34C300.358 23.22 300.005 23.16 299.565 23.16C298.685 23.16 297.831 23.3733 297.005 23.8C296.925 26.84 296.871 29.12 296.845 30.64L298.525 30.8C298.525 31.1733 298.411 31.5733 298.185 32H293.585L293.525 31.3C294.138 31.0867 294.738 30.9267 295.325 30.82C295.245 27.4333 295.178 24.9267 295.125 23.3C294.391 23.26 293.805 23.18 293.365 23.06L293.445 22.02C294.165 21.82 295.211 21.72 296.585 21.72C296.745 21.96 296.865 22.3067 296.945 22.76C297.518 22.4533 298.091 22.1867 298.665 21.96C299.251 21.72 299.618 21.6 299.765 21.6Z" fill="#E06733"/>
<rect x="398.5" y="0.5" width="160" height="49" rx="4.5" stroke="#E06733"/>
<path d="M444.1 18C445.793 18 447.047 18.28 447.86 18.84C448.687 19.3867 449.1 20.36 449.1 21.76C449.1 23.16 448.693 24.2733 447.88 25.1C447.067 25.9133 445.753 26.32 443.94 26.32H442.26L442.2 30.66L443.76 30.8C443.76 31.1733 443.647 31.5733 443.42 32H438.92L438.86 31.32C439.42 31.1067 439.993 30.9467 440.58 30.84C440.5 25.64 440.433 21.7733 440.38 19.24C440.02 19.1733 439.433 19.0133 438.62 18.76L438.72 18H444.1ZM443.74 25.02C444.887 25.0067 445.76 24.72 446.36 24.16C446.96 23.5867 447.26 22.8333 447.26 21.9C447.26 20.9667 446.967 20.32 446.38 19.96C445.793 19.5867 444.853 19.4 443.56 19.4C443.32 19.4 442.913 19.4067 442.34 19.42C442.34 19.4333 442.32 21.3067 442.28 25.04L443.74 25.02ZM452.924 17.14C453.337 17.14 453.631 17.1533 453.804 17.18C453.804 17.6467 453.717 18.18 453.544 18.78C453.424 26.6467 453.364 30.6 453.364 30.64L455.044 30.8C455.044 31.1733 454.931 31.5733 454.704 32H450.104L450.044 31.3C450.657 31.0867 451.257 30.9267 451.844 30.82L451.644 18.72C450.911 18.68 450.324 18.6 449.884 18.48L449.964 17.44C450.644 17.24 451.631 17.14 452.924 17.14ZM464.162 25.46L464.062 30.62C464.636 30.66 465.209 30.7533 465.782 30.9L465.742 31.6C465.529 31.7067 465.142 31.8267 464.582 31.96C464.036 32.08 463.496 32.14 462.962 32.14C462.722 31.66 462.589 31.2 462.562 30.76C461.042 31.76 459.976 32.26 459.362 32.26C458.416 32.26 457.656 32.0067 457.082 31.5C456.509 30.9933 456.222 30.2867 456.222 29.38C456.222 27.2867 457.502 26.2067 460.062 26.14C461.556 26.1 462.309 26.08 462.322 26.08L462.302 25.4C462.276 24.48 462.102 23.82 461.782 23.42C461.462 23.0067 460.889 22.8 460.062 22.8C459.716 22.8 459.342 22.88 458.942 23.04L458.462 25.04C458.396 25.0533 458.282 25.06 458.122 25.06L457.302 25C457.089 24.4267 456.976 23.6333 456.962 22.62C457.216 22.4867 457.796 22.2867 458.702 22.02C459.609 21.74 460.189 21.6 460.442 21.6C461.802 21.6 462.762 21.9 463.322 22.5C463.882 23.1 464.162 24.0867 464.162 25.46ZM459.802 30.9C460.189 30.9 461.082 30.4667 462.482 29.6L462.382 27.1C461.476 27.18 460.716 27.2533 460.102 27.32C459.489 27.3867 458.996 27.5667 458.622 27.86C458.249 28.14 458.062 28.5867 458.062 29.2C458.062 30.3333 458.642 30.9 459.802 30.9ZM473.144 21.6C474.424 21.6 475.35 21.92 475.924 22.56C476.497 23.1867 476.784 24.1467 476.784 25.44C476.784 25.8133 476.73 27.5467 476.624 30.64L478.304 30.8C478.304 31.1733 478.19 31.5733 477.964 32H473.364L473.304 31.3C473.917 31.0867 474.517 30.9267 475.104 30.82C475.024 27.3267 474.95 25.3867 474.884 25C474.83 24.6 474.737 24.2533 474.604 23.96C474.47 23.6667 474.27 23.46 474.004 23.34C473.737 23.22 473.384 23.16 472.944 23.16C472.064 23.16 471.21 23.3733 470.384 23.8C470.304 26.84 470.25 29.12 470.224 30.64L471.904 30.8C471.904 31.1733 471.79 31.5733 471.564 32H466.964L466.904 31.3C467.517 31.0867 468.117 30.9267 468.704 30.82C468.624 27.4333 468.557 24.9267 468.504 23.3C467.77 23.26 467.184 23.18 466.744 23.06L466.824 22.02C467.544 21.82 468.59 21.72 469.964 21.72C470.124 21.96 470.244 22.3067 470.324 22.76C470.897 22.4533 471.47 22.1867 472.044 21.96C472.63 21.72 472.997 21.6 473.144 21.6ZM480.708 30.76L480.548 23.22H479.008L478.948 22.52C479.081 22.4267 479.468 22.2533 480.108 22L481.748 19.44C482.014 19.4667 482.221 19.5333 482.368 19.64L482.348 21.84C483.348 21.84 484.168 21.9067 484.808 22.04C484.808 22.4 484.694 22.7933 484.468 23.22H482.308C482.281 24.82 482.254 27.2467 482.228 30.5C482.974 30.54 483.721 30.6733 484.468 30.9L484.448 31.6C484.261 31.72 483.781 31.86 483.008 32.02C482.248 32.18 481.621 32.26 481.128 32.26C481.061 32.1533 480.974 31.9267 480.868 31.58C480.761 31.22 480.708 30.9467 480.708 30.76ZM489.781 19.94C489.434 20.02 489.094 20.06 488.761 20.06C488.441 20.06 488.121 20.04 487.801 20C487.721 19.6267 487.681 19.2533 487.681 18.88C487.681 18.4933 487.694 18.2067 487.721 18.02C488.014 17.9533 488.321 17.92 488.641 17.92C488.974 17.92 489.328 17.9333 489.701 17.96C489.781 18.3067 489.821 18.6467 489.821 18.98C489.821 19.3 489.808 19.62 489.781 19.94ZM486.141 22.04C487.274 21.84 488.154 21.74 488.781 21.74C489.408 21.74 489.808 21.7533 489.981 21.78C489.981 22.1 489.941 22.4533 489.861 22.84C489.781 23.2267 489.734 23.4133 489.721 23.4L489.541 30.64L491.221 30.8C491.221 31.1733 491.108 31.5733 490.881 32H486.281L486.221 31.3C486.834 31.0867 487.434 30.9267 488.021 30.82C487.941 27.4867 487.874 24.9867 487.821 23.32C487.048 23.32 486.461 23.24 486.061 23.08L486.141 22.04ZM498.573 21.6C499.853 21.6 500.78 21.92 501.353 22.56C501.927 23.1867 502.213 24.1467 502.213 25.44C502.213 25.8133 502.16 27.5467 502.053 30.64L503.733 30.8C503.733 31.1733 503.62 31.5733 503.393 32H498.793L498.733 31.3C499.347 31.0867 499.947 30.9267 500.533 30.82C500.453 27.3267 500.38 25.3867 500.313 25C500.26 24.6 500.167 24.2533 500.033 23.96C499.9 23.6667 499.7 23.46 499.433 23.34C499.167 23.22 498.813 23.16 498.373 23.16C497.493 23.16 496.64 23.3733 495.813 23.8C495.733 26.84 495.68 29.12 495.653 30.64L497.333 30.8C497.333 31.1733 497.22 31.5733 496.993 32H492.393L492.333 31.3C492.947 31.0867 493.547 30.9267 494.133 30.82C494.053 27.4333 493.987 24.9267 493.933 23.3C493.2 23.26 492.613 23.18 492.173 23.06L492.253 22.02C492.973 21.82 494.02 21.72 495.393 21.72C495.553 21.96 495.673 22.3067 495.753 22.76C496.327 22.4533 496.9 22.1867 497.473 21.96C498.06 21.72 498.427 21.6 498.573 21.6ZM509.938 30.78L511.718 30.74C513.558 30.74 514.478 31.5 514.478 33.02C514.478 33.7267 514.171 34.38 513.558 34.98C512.958 35.5933 512.238 36.0533 511.398 36.36C510.558 36.6667 509.771 36.82 509.038 36.82C508.318 36.82 507.644 36.7133 507.018 36.5C506.391 36.3 505.858 35.9667 505.418 35.5C504.978 35.0333 504.758 34.4933 504.758 33.88C504.758 33.7333 504.991 33.3467 505.458 32.72C505.938 32.1067 506.251 31.7467 506.398 31.64C506.278 31.56 506.044 31.3333 505.698 30.96C505.351 30.5733 505.158 30.3067 505.118 30.16C505.451 29.5467 505.978 28.9467 506.698 28.36C505.631 27.72 505.098 26.6667 505.098 25.2C505.098 24.0267 505.471 23.1333 506.218 22.52C506.964 21.9067 507.898 21.6 509.018 21.6C510.138 21.6 511.004 21.78 511.618 22.14C512.684 21.9267 513.731 21.82 514.758 21.82C515.011 21.82 515.138 21.9733 515.138 22.28C515.138 22.8133 515.038 23.18 514.838 23.38L512.538 23C513.018 23.6133 513.258 24.3467 513.258 25.2C513.258 26.5333 512.864 27.4933 512.078 28.08C511.291 28.6533 510.324 28.94 509.178 28.94C508.818 28.94 508.391 28.8933 507.898 28.8C507.698 29.2133 507.444 29.66 507.138 30.14C507.378 30.5667 508.311 30.78 509.938 30.78ZM512.478 34.46C512.611 34.0867 512.678 33.7 512.678 33.3C512.678 32.9133 512.524 32.6 512.218 32.36C511.911 32.12 511.518 32 511.038 32C509.131 32 507.964 31.98 507.538 31.94C507.178 32.5133 506.924 32.9933 506.778 33.38C506.644 33.78 506.577 34.0067 506.577 34.06C506.577 34.58 506.824 34.9667 507.318 35.22C507.811 35.4733 508.378 35.6 509.018 35.6C509.671 35.6 510.324 35.4933 510.978 35.28C511.644 35.0667 512.144 34.7933 512.478 34.46ZM511.458 25.28C511.458 23.6267 510.698 22.8 509.178 22.8C507.658 22.8 506.898 23.6 506.898 25.2C506.898 26.0133 507.098 26.64 507.498 27.08C507.898 27.52 508.478 27.74 509.238 27.74C510.718 27.74 511.458 26.92 511.458 25.28Z" fill="#E06733"/>
</svg>
